<svg xmlns="http://www.w3.org/2000/svg" xmlns:xlink="http://www.w3.org/1999/xlink" width="860" height="75" fill="none" viewBox="0 0 860 75"><style>g.elem rect{fill:#bbb;stroke:#000;stroke-width:1.5}g.elem a:hover rect{fill:#ddd}g.elem_active rect{fill:#fff}g.elem_active text{fill:#333}g.elem_active rect,line{stroke:#000;stroke-width:1.5}text{font-family:Helvetica,arial,sans-serif;font-size:85%;fill:#0366b6;font-weight:700}</style><line x1="25" x2="300" y1="5" y2="5" style="stroke:#000;stroke-dasharray:6;stroke-width:1"/><line x1="25" x2="25" y1="5" y2="15" style="stroke:#000;stroke-dasharray:6;stroke-width:1"/><text x="430" y="10" text-anchor="middle" style="fill:#333">The Data Science Pipeline with mlpack</text><line x1="570" x2="845" y1="5" y2="5" style="stroke:#000;stroke-dasharray:6;stroke-width:1"/><line x1="845" x2="845" y1="5" y2="15" style="stroke:#000;stroke-dasharray:6;stroke-width:1"/><g class="elem"><a target="_top" xlink:href="../user/load_save.html"><rect width="120" height="40" x="25" y="20" rx="10" ry="10"/><text x="85" y="37" text-anchor="middle">Data loading</text><text x="85" y="52" text-anchor="middle">and I/O</text></a></g><line x1="145" x2="164" y1="40" y2="40"/><line x1="164" x2="159" y1="40" y2="35"/><line x1="164" x2="159" y1="40" y2="45"/><g class="elem"><a target="_top" xlink:href="../user/preprocessing.html"><rect width="120" height="40" x="165" y="20" rx="10" ry="10"/><text x="225" y="37" text-anchor="middle">Preprocessing /</text><text x="225" y="52" text-anchor="middle">feature extraction</text></a></g><line x1="285" x2="304" y1="40" y2="40"/><line x1="304" x2="299" y1="40" y2="35"/><line x1="304" x2="299" y1="40" y2="45"/><g class="elem"><a target="_top" xlink:href="../user/transformations.html"><rect width="120" height="40" x="305" y="20" rx="10" ry="10"/><text x="365" y="44" text-anchor="middle">Transformations</text></a></g><line x1="425" x2="444" y1="40" y2="40"/><line x1="444" x2="439" y1="40" y2="35"/><line x1="444" x2="439" y1="40" y2="45"/><g class="elem"><a target="_top" xlink:href="../user/modeling.html"><rect width="120" height="40" x="445" y="20" rx="10" ry="10"/><text x="505" y="44" text-anchor="middle">Modeling</text></a></g><line x1="565" x2="584" y1="40" y2="40"/><line x1="584" x2="579" y1="40" y2="35"/><line x1="584" x2="579" y1="40" y2="45"/><g class="elem_active"><rect width="120" height="40" x="585" y="20" rx="10" ry="10"/><text x="645" y="44" text-anchor="middle">Evaluation</text></g><line x1="705" x2="724" y1="40" y2="40"/><line x1="724" x2="719" y1="40" y2="35"/><line x1="724" x2="719" y1="40" y2="45"/><g class="elem"><a target="_top" xlink:href="../user/deployment.html"><rect width="120" height="40" x="725" y="20" rx="10" ry="10"/><text x="785" y="44" text-anchor="middle">Deployment</text></a></g></svg>