<svg xmlns="http://www.w3.org/2000/svg" xmlns:xlink="http://www.w3.org/1999/xlink" width="860" height="582" fill="none" viewBox="0 0 860 582"><style>g.elem rect{fill:#aaa;stroke:#000;stroke-width:1.5}g.elem:hover rect{fill:#ccc}g.pipeline_elem rect{fill:#ddd}g.pipeline_elem:hover rect{fill:#fff}g.pipeline_elem rect,line{stroke:#000;stroke-width:1.5}a text{fill:#0366b6}a text:hover{text-decoration:underline}text.header{font-weight:700}a text.header{fill:#031676}text{font-family:Helvetica,arial,sans-serif;font-size:14px;fill:#333}</style><g class="elem"><rect width="260" height="100" x="10" y="10" rx="20" ry="20"/><a target="_top" xlink:href="../user/prerequisites.html"><text x="140" y="30" class="header" text-anchor="middle">Prerequisites</text></a><a target="_top" xlink:href="../user/install.html"><text x="140" y="55" text-anchor="middle">Installing mlpack</text></a><a target="_top" xlink:href="../embedded/supported_boards.html"><text x="140" y="70" text-anchor="middle">Cross-compilation setup</text></a><a target="_top" xlink:href="../quickstart/cpp.html"><text x="140" y="85" text-anchor="middle">Quickstart</text></a><a target="_top" xlink:href="../user/matrices.html"><text x="140" y="100" text-anchor="middle">Matrices and data</text></a></g><g class="elem"><rect width="260" height="100" x="300" y="10" rx="20" ry="20"/><a target="_top" xlink:href="../user/tutorials.html"><text x="430" y="30" class="header" text-anchor="middle">Tutorials and Examples</text></a><a target="_top" xlink:href="https://github.com/mlpack/examples"><image width="14" height="14" x="320" y="49" href="github.svg"/><text x="430" y="61" text-anchor="middle">mlpack examples repository</text></a><a target="_top" xlink:href="https://www.youtube.com/@mlpack/videos"><image width="15" height="15" x="320" y="66" href="youtube.svg"/><text x="430" y="79" text-anchor="middle">mlpack Youtube channel</text></a><a target="_top" xlink:href="https://github.com/mlpack/models"><image width="14" height="14" x="320" y="85" href="github.svg"/><text x="430" y="97" text-anchor="middle">mlpack models repository</text></a></g><g class="elem"><a target="_top" xlink:href="../user/core.html"><rect width="260" height="100" x="590" y="10" rx="20" ry="20"/><text x="720" y="30" class="header" text-anchor="middle">Utility Classes</text><text x="660" y="62" text-anchor="middle">Math</text><text x="780" y="62" text-anchor="middle">Distances</text><text x="660" y="80" text-anchor="middle">Distributions</text><text x="780" y="80" text-anchor="middle">Kernels</text><text x="720" y="98" text-anchor="middle">Trees</text></a></g><line x1="30" x2="830" y1="130" y2="130" style="stroke:#000;stroke-dasharray:4;stroke-width:4"/><text x="430" y="155" text-anchor="middle" style="font-weight:700;font-size:125%">The Data Science Pipeline with mlpack</text><g class="pipeline"><g class="pipeline_elem"><rect width="260" height="100" x="10" y="170" rx="20" ry="20"/><a target="_top" xlink:href="../user/load_save.html"><text x="140" y="190" class="header" text-anchor="middle">Data loading and I/O</text></a><a target="_top" xlink:href="../user/load_save.html#numeric-data"><text x="140" y="215" text-anchor="middle">Numeric data</text></a><a target="_top" xlink:href="../user/load_save.html#mixed-categorical-data"><text x="140" y="230" text-anchor="middle">Mixed categorical data</text></a><a target="_top" xlink:href="../user/load_save.html#image-data"><text x="140" y="245" text-anchor="middle">Image data</text></a><a target="_top" xlink:href="../user/load_save.html#mlpack-objects"><text x="140" y="260" text-anchor="middle">mlpack models and objects</text></a></g><line x1="270" x2="300" y1="220" y2="220"/><line x1="298" x2="288" y1="220" y2="210"/><line x1="298" x2="288" y1="220" y2="230"/><g class="pipeline_elem"><rect width="260" height="100" x="300" y="170" rx="20" ry="20"/><a target="_top" xlink:href="../user/preprocessing.html"><text x="430" y="190" class="header" text-anchor="middle">Preprocessing / feature extraction</text></a><a target="_top" xlink:href="../user/core/normalizing_labels.html"><text x="430" y="215" text-anchor="middle">Normalizing labels</text></a><a target="_top" xlink:href="../user/core/split.html"><text x="430" y="230" text-anchor="middle">Dataset splitting</text></a><a target="_top" xlink:href="../user/core/images.html"><text x="430" y="245" text-anchor="middle">Image preprocessing</text></a><a target="_top" xlink:href="../user/core/imputation.html"><text x="430" y="260" text-anchor="middle">Imputing missing values</text></a></g><line x1="560" x2="590" y1="220" y2="220"/><line x1="588" x2="578" y1="220" y2="210"/><line x1="588" x2="578" y1="220" y2="230"/><g class="pipeline_elem"><a target="_top" xlink:href="../user/transformations.html"><rect width="260" height="100" x="590" y="170" rx="20" ry="20"/><text x="720" y="190" class="header" text-anchor="middle">Transformations</text></a><a target="_top" xlink:href="../user/methods/amf.html"><text x="630" y="215" text-anchor="middle">AMF</text></a><a target="_top" xlink:href="../user/methods/local_coordinate_coding.html"><text x="750" y="215" text-anchor="middle">LocalCoordinateCoding</text></a><a target="_top" xlink:href="../user/methods/lmnn.html"><text x="630" y="230" text-anchor="middle">LMNN</text></a><a target="_top" xlink:href="../user/methods/nca.html"><text x="700" y="230" text-anchor="middle">NCA</text></a><a target="_top" xlink:href="../user/methods/nmf.html"><text x="790" y="230" text-anchor="middle">NMF</text></a><a target="_top" xlink:href="../user/methods/pca.html"><text x="630" y="245" text-anchor="middle">PCA</text></a><a target="_top" xlink:href="../user/methods/radical.html"><text x="700" y="245" text-anchor="middle">RADICAL</text></a><a target="_top" xlink:href="../user/methods/sparse_coding.html"><text x="790" y="245" text-anchor="middle">SparseCoding</text></a></g><line x1="720" x2="720" y1="270" y2="295"/><line x1="720" x2="140" y1="295" y2="295"/><line x1="140" x2="140" y1="295" y2="320"/><line x1="140" x2="130" y1="318" y2="308"/><line x1="140" x2="150" y1="318" y2="308"/><g class="pipeline_elem"><a target="_top" xlink:href="../user/modeling.html"><rect width="260" height="100" x="10" y="320" rx="20" ry="20"/><text x="140" y="340" class="header" text-anchor="middle">Modeling</text></a><a target="_top" xlink:href="../user/modeling.html#classification"><text x="140" y="365" text-anchor="middle">Classification</text></a><a target="_top" xlink:href="../user/modeling.html#regression"><text x="140" y="380" text-anchor="middle">Regression</text></a><a target="_top" xlink:href="../user/modeling.html#clustering"><text x="140" y="395" text-anchor="middle">Clustering</text></a><a target="_top" xlink:href="../user/modeling.html#geometric-algorithms"><text x="140" y="410" text-anchor="middle">Geometric algorithms</text></a></g><line x1="270" x2="300" y1="370" y2="370"/><line x1="298" x2="288" y1="370" y2="360"/><line x1="298" x2="288" y1="370" y2="380"/><g class="pipeline_elem"><a target="_top" xlink:href="../user/evaluation.html"><rect width="260" height="100" x="300" y="320" rx="20" ry="20"/><text x="430" y="340" class="header" text-anchor="middle">Evaluation</text></a><a target="_top" xlink:href="../user/cv.html"><text x="430" y="365" text-anchor="middle">Cross-validation</text></a><a target="_top" xlink:href="../user/hpt.html"><text x="430" y="380" text-anchor="middle">Hyperparameter tuning</text></a></g><line x1="560" x2="590" y1="370" y2="370"/><line x1="588" x2="578" y1="370" y2="360"/><line x1="588" x2="578" y1="370" y2="380"/><g class="pipeline_elem"><a target="_top" xlink:href="../user/deployment.html"><rect width="260" height="100" x="590" y="320" rx="20" ry="20"/><text x="720" y="340" class="header" text-anchor="middle">Deployment</text></a><a target="_top" xlink:href="../user/compile.html"><text x="720" y="365" text-anchor="middle">Compile an mlpack program</text></a><a target="_top" xlink:href="../user/deploy_docker.html"><text x="720" y="380" text-anchor="middle">Deploy to a Docker container</text></a><a target="_top" xlink:href="../embedded/crosscompile_armv7.html"><text x="720" y="395" text-anchor="middle">Cross-compile to a Raspberry Pi</text></a><a target="_top" xlink:href="../user/deploy_windows.html"><text x="720" y="410" text-anchor="middle">Deploy mlpack on Windows</text></a></g></g><line x1="30" x2="830" y1="450" y2="450" style="stroke:#000;stroke-dasharray:4;stroke-width:4"/><g class="bottom"><g class="elem"><a target="_top" xlink:href="../user/bindings.html"><rect width="260" height="100" x="155" y="480" rx="20" ry="20"/><text x="285" y="500" class="header" text-anchor="middle">Bindings</text></a><a target="_top" xlink:href="../bindings/python.html"><image width="15" height="15" x="190" y="513" href="python.svg"/><text x="235" y="525" text-anchor="middle">Python</text></a><a target="_top" xlink:href="../bindings/julia.html"><image width="15" height="15" x="360" y="513" href="julia.svg"/><text x="335" y="525" text-anchor="middle">Julia</text></a><a target="_top" xlink:href="../bindings/cli.html"><image width="15" height="15" x="190" y="528" href="terminal.svg"/><text x="235" y="540" text-anchor="middle">CLI</text></a><a target="_top" xlink:href="../bindings/r.html"><image width="15" height="15" x="360" y="528" href="r.svg"/><text x="335" y="540" text-anchor="middle">R</text></a><a target="_top" xlink:href="../bindings/go.html"><image width="15" height="15" x="190" y="543" href="gopher.svg"/><text x="235" y="555" text-anchor="middle">Go</text></a></g><g class="elem"><a target="_top" xlink:href="../developer/developers.html"><rect width="260" height="100" x="445" y="480" rx="20" ry="20"/><text x="575" y="500" class="header" text-anchor="middle">Developer documentation</text></a><a target="_top" xlink:href="../developer/community.html"><text x="515" y="525" text-anchor="middle">Community</text></a><a target="_top" xlink:href="../developer/gsoc.html"><text x="635" y="525" text-anchor="middle">GSoC</text></a><a target="_top" xlink:href="../developer/ci.html"><text x="515" y="540" text-anchor="middle">CI/CD</text></a><a target="_top" xlink:href="../developer/timer.html"><text x="635" y="540" text-anchor="middle">Timing</text></a><a target="_top" xlink:href="../developer/bindings.html"><text x="515" y="555" text-anchor="middle">Binding system</text></a><a target="_top" xlink:href="../developer/iodoc.html"><text x="635" y="555" text-anchor="middle">Writing a binding</text></a><a target="_top" xlink:href="../developer/template_policies.html"><text x="575" y="570" text-anchor="middle">Template policies</text></a></g></g></svg>