<svg xmlns="http://www.w3.org/2000/svg" xmlns:xlink="http://www.w3.org/1999/xlink" width="280" height="1440" fill="none" viewBox="0 0 280 1440"><style>g.elem rect{fill:#aaa;stroke:#000;stroke-width:1.5}g.elem:hover rect{fill:#ccc}g.pipeline_elem rect{fill:#ddd}g.pipeline_elem:hover rect{fill:#fff}g.pipeline_elem rect,line{stroke:#000;stroke-width:1.5}a text{fill:#0366b6}a text:hover{text-decoration:underline}text.header{font-weight:700}a text.header{fill:#031676}text{font-family:Helvetica,arial,sans-serif;font-size:14px;fill:#333}</style><g class="elem"><rect width="260" height="100" x="10" y="10" rx="20" ry="20"/><a target="_top" xlink:href="../user/prerequisites.html"><text x="140" y="30" class="header" text-anchor="middle">Prerequisites</text></a><a target="_top" xlink:href="../user/install.html"><text x="140" y="55" text-anchor="middle">Installing mlpack</text></a><a target="_top" xlink:href="../embedded/supported_boards.html"><text x="140" y="70" text-anchor="middle">Cross-compilation setup</text></a><a target="_top" xlink:href="quickstart/cpp.html"><text x="140" y="85" text-anchor="middle">Quickstart</text></a><a target="_top" xlink:href="user/matrices.html"><text x="140" y="100" text-anchor="middle">Matrices and data</text></a></g><g class="elem"><rect width="260" height="100" x="10" y="120" rx="20" ry="20"/><a target="_top" xlink:href="../user/tutorials.html"><text x="140" y="140" class="header" text-anchor="middle">Tutorials and Examples</text></a><a target="_top" xlink:href="https://github.com/mlpack/examples"><image width="14" height="14" x="30" y="162" href="github.svg"/><text x="140" y="174" text-anchor="middle">mlpack examples repository</text></a><a target="_top" xlink:href="https://www.youtube.com/@mlpack/videos"><image width="15" height="15" x="30" y="180" href="youtube.svg"/><text x="140" y="192" text-anchor="middle">mlpack Youtube channel</text></a><a target="_top" xlink:href="https://github.com/mlpack/models"><image width="14" height="14" x="30" y="198" href="github.svg"/><text x="140" y="210" text-anchor="middle">mlpack models repository</text></a></g><g class="elem"><a target="_top" xlink:href="../user/core.html"><rect width="260" height="100" x="10" y="230" rx="20" ry="20"/><text x="140" y="250" class="header" text-anchor="middle">Utility Classes</text><text x="80" y="278" text-anchor="middle">Math</text><text x="200" y="278" text-anchor="middle">Distances</text><text x="80" y="296" text-anchor="middle">Distributions</text><text x="200" y="296" text-anchor="middle">Kernels</text><text x="140" y="314" text-anchor="middle">Trees</text></a></g><line x1="20" x2="260" y1="350" y2="350" style="stroke:#000;stroke-dasharray:4;stroke-width:4"/><text x="140" y="375" text-anchor="middle" style="font-weight:700;font-size:125%">The Data Science Pipeline</text><text x="140" y="395" text-anchor="middle" style="font-weight:700;font-size:125%">with mlpack</text><line x1="20" x2="260" y1="405" y2="405" style="stroke:#000;stroke-dasharray:4;stroke-width:4"/><g class="pipeline"><g class="pipeline_elem"><rect width="260" height="100" x="10" y="430" rx="20" ry="20"/><a target="_top" xlink:href="../user/load_save.html"><text x="140" y="450" class="header" text-anchor="middle">Data loading and I/O</text></a><a target="_top" xlink:href="../user/load_save.html#numeric-data"><text x="140" y="475" text-anchor="middle">Numeric data</text></a><a target="_top" xlink:href="../user/load_save.html#mixed-categorical-data"><text x="140" y="490" text-anchor="middle">Mixed categorical data</text></a><a target="_top" xlink:href="../user/load_save.html#image-data"><text x="140" y="505" text-anchor="middle">Image data</text></a><a target="_top" xlink:href="../user/load_save.html#mlpack-objects"><text x="140" y="520" text-anchor="middle">mlpack models and objects</text></a></g><line x1="140" x2="140" y1="530" y2="560"/><line x1="140" x2="130" y1="560" y2="550"/><line x1="140" x2="150" y1="560" y2="550"/><g class="pipeline_elem"><rect width="260" height="100" x="10" y="560" rx="20" ry="20"/><a target="_top" xlink:href="../user/preprocessing.html"><text x="140" y="580" class="header" text-anchor="middle">Preprocessing / feature extraction</text></a><a target="_top" xlink:href="../user/core/normalizing_labels.html"><text x="140" y="615" text-anchor="middle">Normalizing labels</text></a><a target="_top" xlink:href="../user/core/split.html"><text x="140" y="630" text-anchor="middle">Dataset splitting</text></a><a target="_top" xlink:href="../user/core/images.html"><text x="140" y="645" text-anchor="middle">Image preprocessing</text></a><a target="_top" xlink:href="../user/core/imputation.html"><text x="140" y="660" text-anchor="middle">Imputing missing values</text></a></g><line x1="140" x2="140" y1="660" y2="690"/><line x1="140" x2="130" y1="690" y2="680"/><line x1="140" x2="150" y1="690" y2="680"/><g class="pipeline_elem"><a target="_top" xlink:href="../user/transformations.html"><rect width="260" height="100" x="10" y="690" rx="20" ry="20"/><text x="140" y="710" class="header" text-anchor="middle">Transformations</text></a><a target="_top" xlink:href="../user/methods/amf.html"><text x="50" y="740" text-anchor="middle">AMF</text></a><a target="_top" xlink:href="../user/methods/local_coordinate_coding.html"><text x="170" y="740" text-anchor="middle">LocalCoordinateCoding</text></a><a target="_top" xlink:href="../user/methods/lmnn.html"><text x="50" y="755" text-anchor="middle">LMNN</text></a><a target="_top" xlink:href="../user/methods/nca.html"><text x="120" y="755" text-anchor="middle">NCA</text></a><a target="_top" xlink:href="../user/methods/nmf.html"><text x="210" y="755" text-anchor="middle">NMF</text></a><a target="_top" xlink:href="../user/methods/pca.html"><text x="50" y="770" text-anchor="middle">PCA</text></a><a target="_top" xlink:href="../user/methods/radical.html"><text x="120" y="770" text-anchor="middle">RADICAL</text></a><a target="_top" xlink:href="../user/methods/sparse_coding.html"><text x="210" y="770" text-anchor="middle">SparseCoding</text></a></g><line x1="140" x2="140" y1="790" y2="820"/><line x1="140" x2="130" y1="820" y2="810"/><line x1="140" x2="150" y1="820" y2="810"/><g class="pipeline_elem"><a target="_top" xlink:href="../user/modeling.html"><rect width="260" height="100" x="10" y="820" rx="20" ry="20"/><text x="140" y="840" class="header" text-anchor="middle">Modeling</text></a><a target="_top" xlink:href="../user/modeling.html#classification"><text x="140" y="865" text-anchor="middle">Classification</text></a><a target="_top" xlink:href="../user/modeling.html#regression"><text x="140" y="880" text-anchor="middle">Regression</text></a><a target="_top" xlink:href="../user/modeling.html#clustering"><text x="140" y="895" text-anchor="middle">Clustering</text></a><a target="_top" xlink:href="../user/modeling.html#geometric-algorithms"><text x="140" y="910" text-anchor="middle">Geometric algorithms</text></a></g><line x1="140" x2="140" y1="920" y2="950"/><line x1="140" x2="130" y1="950" y2="940"/><line x1="140" x2="150" y1="950" y2="940"/><g class="pipeline_elem"><a target="_top" xlink:href="../user/evaluation.html"><rect width="260" height="100" x="10" y="950" rx="20" ry="20"/><text x="140" y="970" class="header" text-anchor="middle">Evaluation</text></a><a target="_top" xlink:href="../user/cv.html"><text x="140" y="1005" text-anchor="middle">Cross-validation</text></a><a target="_top" xlink:href="../user/hpt.html"><text x="140" y="1020" text-anchor="middle">Hyperparameter tuning</text></a></g><line x1="140" x2="140" y1="1050" y2="1080"/><line x1="140" x2="130" y1="1080" y2="1070"/><line x1="140" x2="150" y1="1080" y2="1070"/><g class="pipeline_elem"><a target="_top" xlink:href="../user/deployment.html"><rect width="260" height="100" x="10" y="1080" rx="20" ry="20"/><text x="140" y="1100" class="header" text-anchor="middle">Deployment</text></a><a target="_top" xlink:href="../user/compile.html"><text x="140" y="1130" text-anchor="middle">Compile an mlpack program</text></a><a target="_top" xlink:href="../user/deploy_docker.html"><text x="140" y="1145" text-anchor="middle">Deploy to a Docker container</text></a><a target="_top" xlink:href="../embedded/crosscompile_armv7.html"><text x="140" y="1160" text-anchor="middle">Cross-compile to a Raspberry Pi</text><a target="_top" xlink:href="../user/deploy_windows.html"><text x="140" y="1175" text-anchor="middle">Deploy mlpack on Windows</text></a></a></g></g><line x1="20" x2="260" y1="1200" y2="1200" style="stroke:#000;stroke-dasharray:4;stroke-width:4"/><g class="bottom"><g class="elem"><a target="_top" xlink:href="../user/bindings.html"><rect width="260" height="100" x="10" y="1220" rx="20" ry="20"/><text x="140" y="1240" class="header" text-anchor="middle">Bindings</text></a><a target="_top" xlink:href="../bindings/python.html"><image width="15" height="15" x="45" y="1253" href="python.svg"/><text x="90" y="1265" text-anchor="middle">Python</text></a><a target="_top" xlink:href="../bindings/julia.html"><image width="15" height="15" x="215" y="1253" href="julia.svg"/><text x="190" y="1265" text-anchor="middle">Julia</text></a><a target="_top" xlink:href="../bindings/cli.html"><image width="15" height="15" x="45" y="1268" href="terminal.svg"/><text x="90" y="1280" text-anchor="middle">CLI</text></a><a target="_top" xlink:href="../bindings/r.html"><image width="15" height="15" x="215" y="1268" href="r.svg"/><text x="190" y="1280" text-anchor="middle">R</text></a><a target="_top" xlink:href="../bindings/go.html"><image width="15" height="15" x="45" y="1283" href="gopher.svg"/><text x="90" y="1295" text-anchor="middle">Go</text></a></g><g class="elem"><a target="_top" xlink:href="../developer/developers.html"><rect width="260" height="100" x="10" y="1330" rx="20" ry="20"/><text x="140" y="1350" class="header" text-anchor="middle">Developer documentation</text></a><a target="_top" xlink:href="../developer/community.html"><text x="80" y="1375" text-anchor="middle">Community</text></a><a target="_top" xlink:href="../developer/gsoc.html"><text x="200" y="1375" text-anchor="middle">GSoC</text></a><a target="_top" xlink:href="../developer/ci.html"><text x="80" y="1390" text-anchor="middle">CI/CD</text></a><a target="_top" xlink:href="../developer/timer.html"><text x="200" y="1390" text-anchor="middle">Timing</text></a><a target="_top" xlink:href="../developer/bindings.html"><text x="80" y="1405" text-anchor="middle">Binding system</text></a><a target="_top" xlink:href="../developer/iodoc.html"><text x="200" y="1405" text-anchor="middle">Writing a binding</text></a><a target="_top" xlink:href="../developer/template_policies.html"><text x="140" y="1420" text-anchor="middle">Template policies</text></a></g></g></svg>